<svg width="1270" height="554" xmlns="http://www.w3.org/2000/svg">

 <g>
  <title>Layer 1</title>
  <ellipse ry="25.5" rx="32.5" id="svg_1" cy="272.5" cx="1004" stroke="#000" fill="none"/>
  <ellipse ry="25.5" rx="32.5" id="svg_3" cy="77.5" cx="807" stroke="#000" fill="none"/>
  <ellipse stroke="#000" ry="25.5" rx="32.5" id="svg_4" cy="206.5" cx="1117" fill="none"/>
  <text font-style="normal" font-weight="normal" xml:space="preserve" text-anchor="start" font-family="sans-serif" font-size="24" stroke-width="0" id="svg_5" y="284" x="1148" stroke="#000" fill="#000000">b x e</text>
  <text style="cursor: move;" xml:space="preserve" text-anchor="start" font-family="sans-serif" font-size="24" stroke-width="0" id="svg_6" y="140" x="618" stroke="#000" fill="#000000">c x d</text>
  <text xml:space="preserve" text-anchor="start" font-family="sans-serif" font-size="24" stroke-width="0" id="svg_7" y="143" x="1014" stroke="#000" fill="#000000">c x d</text>
  <ellipse ry="25.5" rx="32.5" id="svg_8" cy="135.5" cx="645" stroke="#000" fill="none"/>
  <ellipse ry="25.5" rx="32.5" id="svg_9" cy="198.5" cx="555" stroke="#000" fill="none"/>
  <ellipse stroke="#000" ry="25.5" rx="32.5" id="svg_10" cy="198.5" cx="726" fill="none"/>
  <ellipse stroke="#000" ry="25.5" rx="32.5" id="svg_11" cy="207.5" cx="946" fill="none"/>
  <text font-style="normal" font-weight="normal" xml:space="preserve" text-anchor="start" font-family="sans-serif" font-size="24" stroke-width="0" id="svg_16" y="207" x="529" stroke="#000" fill="#000000">a x c</text>
  <text font-style="normal" font-weight="normal" xml:space="preserve" text-anchor="start" font-family="sans-serif" font-size="24" stroke-width="0" id="svg_17" y="208" x="698" stroke="#000" fill="#000000">a x d</text>
  <text font-style="normal" font-weight="normal" xml:space="preserve" text-anchor="start" font-family="sans-serif" font-size="24" stroke-width="0" id="svg_18" y="212" x="920" stroke="#000" fill="#000000">b x c</text>
  <text font-style="normal" font-weight="normal" xml:space="preserve" text-anchor="start" font-family="sans-serif" font-size="24" stroke-width="0" id="svg_19" y="212" x="1088" stroke="#000" fill="#000000">b x d</text>
  <ellipse ry="25.5" rx="32.5" id="svg_20" cy="136.5" cx="1036" stroke="#000" fill="none"/>
  <ellipse ry="25.5" rx="32.5" id="svg_21" cy="318.5" cx="351" stroke="#000" fill="none"/>
  <ellipse transform="matrix(1 0 0 0.84 0 90.56)" ry="25.5" rx="32.5" id="svg_22" cy="208.69048" cx="582" stroke="#000" fill="none"/>
  <ellipse transform="matrix(1 0 0 0.84 0 90.56)" ry="25.5" rx="32.5" id="svg_23" cy="217.59524" cx="676" stroke="#000" fill="none"/>
  <ellipse transform="matrix(1 0 0 0.84 0 90.56)" ry="25.5" rx="32.5" id="svg_24" cy="212.59524" cx="806" stroke="#000" fill="none"/>
  <ellipse ry="25.5" rx="32.5" id="svg_25" cy="269.5" cx="906" stroke="#000" fill="none"/>
  <ellipse ry="25.5" rx="32.5" id="svg_26" cy="277.5" cx="1174" stroke="#000" fill="none"/>
  <ellipse ry="25.5" rx="32.5" id="svg_27" cy="274.5" cx="1091" stroke="#000" fill="none"/>
  <text style="cursor: move;" font-style="normal" font-weight="normal" xml:space="preserve" text-anchor="start" font-family="sans-serif" font-size="24" stroke-width="0" id="svg_28" y="264" x="396" stroke="#000" fill="#000000">c x e</text>
  <text transform="matrix(1 0 0 0.84 0 90.56)" font-style="normal" font-weight="normal" xml:space="preserve" text-anchor="start" font-family="sans-serif" font-size="24" stroke-width="0" id="svg_29" y="214.19048" x="555" stroke="#000" fill="#000000">a x e</text>
  <text transform="matrix(1 0 0 0.84 0 90.56)" font-style="normal" font-weight="normal" xml:space="preserve" text-anchor="start" font-family="sans-serif" font-size="24" stroke-width="0" id="svg_30" y="222.09524" x="654" stroke="#000" fill="#000000">d x e</text>
  <text transform="matrix(1 0 0 0.84 0 90.56)" font-style="normal" font-weight="normal" xml:space="preserve" text-anchor="start" font-family="sans-serif" font-size="24" stroke-width="0" id="svg_31" y="222.09524" x="780" stroke="#000" fill="#000000">a x e</text>
  <text font-style="normal" font-weight="normal" xml:space="preserve" text-anchor="start" font-family="sans-serif" font-size="24" stroke-width="0" id="svg_32" y="276" x="884" stroke="#000" fill="#000000">c x e</text>
  <text font-style="normal" font-weight="normal" xml:space="preserve" text-anchor="start" font-family="sans-serif" font-size="24" stroke-width="0" id="svg_33" y="281" x="980" stroke="#000" fill="#000000">b x e</text>
  <text font-style="normal" font-weight="normal" xml:space="preserve" text-anchor="start" font-family="sans-serif" font-size="24" stroke-width="0" id="svg_34" y="284" x="1066" stroke="#000" fill="#000000">d x e</text>
  <ellipse ry="25.5" rx="32.5" id="svg_35" cy="256.5" cx="423" stroke="#000" fill="none"/>
  <ellipse ry="25.5" rx="32.5" id="svg_36" cy="379.5" cx="264" stroke="#000" fill="none"/>
  <text xml:space="preserve" text-anchor="start" font-family="sans-serif" font-size="24" stroke-width="0" id="svg_37" y="84" x="782" stroke="#000" fill="#000000">a x b</text>
  <text xml:space="preserve" text-anchor="start" font-family="sans-serif" font-size="24" stroke-width="0" id="svg_38" y="440" x="109" stroke="#000" fill="#000000">b x d</text>
  <ellipse ry="25.5" rx="32.5" id="svg_40" cy="425.5" cx="386" stroke="#000" fill="none"/>
  <text xml:space="preserve" text-anchor="start" font-family="sans-serif" font-size="24" stroke-width="0" id="svg_41" y="387" x="237" stroke="#000" fill="#000000">e x b</text>
  <text xml:space="preserve" text-anchor="start" font-family="sans-serif" font-size="24" stroke-width="0" id="svg_42" y="485" x="415" stroke="#000" fill="#000000">a c b e d</text>
  <text xml:space="preserve" text-anchor="start" font-family="sans-serif" font-size="24" stroke-width="0" id="svg_43" y="326" x="326" stroke="#000" fill="#000000">e x d</text>
  <ellipse ry="25.5" rx="32.5" id="svg_45" cy="431.5" cx="133" stroke="#000" fill="none"/>
  <rect stroke="#ff0000" stroke-width="2" id="svg_46" height="41" width="99.99999" y="458" x="7" fill="none"/>
  <text xml:space="preserve" text-anchor="start" font-family="sans-serif" font-size="24" stroke-width="0" id="svg_50" y="485" x="9" stroke="#000" fill="#000000">a c e b d</text>
  <rect stroke="#ff0000" stroke-width="2" id="svg_51" height="41" width="99.99999" y="455" x="269" fill="none"/>
  <text xml:space="preserve" text-anchor="start" font-family="sans-serif" font-size="24" stroke-width="0" id="svg_52" y="486" x="170" stroke="#000" fill="#000000">a c e d b</text>
  <rect stroke="#ff0000" stroke-width="2" id="svg_55" height="41" width="99.99999" y="456" x="165" fill="none"/>
  <text xml:space="preserve" text-anchor="start" font-family="sans-serif" font-size="24" stroke-width="0" id="svg_57" y="434" x="359" stroke="#000" fill="#000000">b x c</text>
  <text xml:space="preserve" text-anchor="start" font-family="sans-serif" font-size="24" stroke-width="0" id="svg_58" y="485" x="272" stroke="#000" fill="#000000">a b c e d</text>
  <rect stroke="#ff0000" stroke-width="2" id="svg_63" height="41" width="99.99999" y="453" x="410" fill="none"/>
  <text stroke="#000" xml:space="preserve" text-anchor="start" font-family="sans-serif" font-size="89" id="svg_72" y="316.19047" x="453.5" fill="#191919">...</text>
  <text transform="matrix(1 0 0 0.84 0 90.56)" stroke="#000" xml:space="preserve" text-anchor="start" font-family="sans-serif" font-size="136" id="svg_73" y="263.66667" x="524.5" fill="#191919">...</text>
  <text transform="matrix(1 0 0 0.84 0 90.56)" stroke="#000" xml:space="preserve" text-anchor="start" font-family="sans-serif" font-size="250" id="svg_74" y="324.38095" x="856.5" fill="#191919">...</text>
  <text transform="matrix(1 0 0 0.84 0 90.56)" stroke="#000" xml:space="preserve" text-anchor="start" font-family="sans-serif" font-size="250" id="svg_75" y="294.61905" x="640.5" fill="#191919">...</text>
  <text transform="matrix(1 0 0 0.84 0 90.56)" stroke="#000" xml:space="preserve" text-anchor="start" font-family="sans-serif" font-size="250" id="svg_76" y="326.7619" x="1062.5" fill="#191919">...</text>
  <text stroke="#000" xml:space="preserve" text-anchor="start" font-family="sans-serif" font-size="89" id="svg_77" y="368.19047" x="433.5" fill="#191919">...</text>
 </g>
</svg>